<svg xmlns="http://www.w3.org/2000/svg" xmlns:xlink="http://www.w3.org/1999/xlink" viewBox="0,0,256,256" width="192px" height="192px" fill-rule="nonzero"><g fill="#ffffff" fill-rule="nonzero" stroke="none" stroke-width="1" stroke-linecap="butt" stroke-linejoin="miter" stroke-miterlimit="10" stroke-dasharray="" stroke-dashoffset="0" font-family="none" font-weight="none" font-size="none" text-anchor="none" style="mix-blend-mode: normal"><g transform="scale(10.66667,10.66667)"><path d="M12,4c-1.933,0 -3.5,1.567 -3.5,3.5c0,1.933 1.567,3.5 3.5,3.5c1.933,0 3.5,-1.567 3.5,-3.5c0,-1.933 -1.567,-3.5 -3.5,-3.5zM4.5,7c-1.38071,0 -2.5,1.11929 -2.5,2.5c0,1.38071 1.11929,2.5 2.5,2.5c1.38071,0 2.5,-1.11929 2.5,-2.5c0,-1.38071 -1.11929,-2.5 -2.5,-2.5zM19.5,7c-1.38071,0 -2.5,1.11929 -2.5,2.5c0,1.38071 1.11929,2.5 2.5,2.5c1.38071,0 2.5,-1.11929 2.5,-2.5c0,-1.38071 -1.11929,-2.5 -2.5,-2.5zM12,13c-2.336,0 -7,1.173 -7,3.5v2.5c0,0.552 0.448,1 1,1h12c0.552,0 1,-0.448 1,-1v-2.5c0,-2.327 -4.664,-3.5 -7,-3.5zM3.89844,14.05273c-1.581,0.244 -3.89844,1.33634 -3.89844,2.65234v2.29492c0,0.552 0.448,1 1,1h2v-3.5c0,-0.961 0.34544,-1.76727 0.89844,-2.44727zM20.10156,14.05273c0.553,0.68 0.89844,1.48627 0.89844,2.44727v3.5h2c0.552,0 1,-0.448 1,-1v-2.29492c0,-1.316 -2.31744,-2.40834 -3.89844,-2.65234z"></path></g></g></svg>