<svg xmlns="http://www.w3.org/2000/svg" xmlns:xlink="http://www.w3.org/1999/xlink" viewBox="0,0,256,256" width="192px" height="192px" fill-rule="nonzero"><g fill="#ffffff" fill-rule="nonzero" stroke="none" stroke-width="1" stroke-linecap="butt" stroke-linejoin="miter" stroke-miterlimit="10" stroke-dasharray="" stroke-dashoffset="0" font-family="none" font-weight="none" font-size="none" text-anchor="none" style="mix-blend-mode: normal"><g transform="scale(10.66667,10.66667)"><path d="M10,2l-1,1h-5v2h1v15c0,1.09306 0.90694,2 2,2h10c1.09306,0 2,-0.90694 2,-2v-15h1v-2h-2h-3l-1,-1zM7,5h10v15h-10zM9.70703,8.29297l-1.41406,1.41406l2.29297,2.29297l-2.29297,2.29297l1.41406,1.41406l2.29297,-2.29297l2.29297,2.29297l1.41406,-1.41406l-2.29297,-2.29297l2.29297,-2.29297l-1.41406,-1.41406l-2.29297,2.29297z"></path></g></g></svg>