<svg xmlns="http://www.w3.org/2000/svg" xmlns:xlink="http://www.w3.org/1999/xlink" viewBox="0,0,256,256" width="192px" height="192px" fill-rule="nonzero"><g fill="#ffffff" fill-rule="nonzero" stroke="none" stroke-width="1" stroke-linecap="butt" stroke-linejoin="miter" stroke-miterlimit="10" stroke-dasharray="" stroke-dashoffset="0" font-family="none" font-weight="none" font-size="none" text-anchor="none" style="mix-blend-mode: normal"><g transform="scale(10.66667,10.66667)"><path d="M14,2h-8c-1.1,0 -2,0.9 -2,2v16c0,1.1 0.9,2 2,2h12c1.1,0 2,-0.9 2,-2v-12zM7.6,17.2l1.5,-2c0.2,-0.267 0.6,-0.267 0.8,0l1.1,1.467l2.1,-2.8c0.2,-0.267 0.6,-0.267 0.8,0l2.5,3.333c0.247,0.33 0.012,0.8 -0.4,0.8h-8c-0.412,0 -0.647,-0.47 -0.4,-0.8zM13,9v-5.5l5.5,5.5z"></path></g></g></svg>