<svg xmlns="http://www.w3.org/2000/svg" xmlns:xlink="http://www.w3.org/1999/xlink" viewBox="0,0,256,256" width="144px" height="144px" fill-rule="nonzero"><g fill="#ffffff" fill-rule="nonzero" stroke="none" stroke-width="1" stroke-linecap="butt" stroke-linejoin="miter" stroke-miterlimit="10" stroke-dasharray="" stroke-dashoffset="0" font-family="none" font-weight="none" font-size="none" text-anchor="none" style="mix-blend-mode: normal"><g transform="scale(10.66667,10.66667)"><path d="M2,2l1,4l6.45703,6.07813l-2.41016,2.55859l-0.83984,-0.84375l-1.41406,1.41406l0.88672,0.88672l-2.50781,2.66016l-0.46484,-0.46094l-1.41406,1.41406l3,3l1.41406,-1.41406l-0.46484,-0.46484l2.66406,-2.50391l0.88672,0.88281l1.41406,-1.41406l-0.83984,-0.83984l2.63281,-2.48437l2.625,2.47266l-0.85156,0.85156l1.41406,1.41406l0.89453,-0.89453l2.66406,2.50391l-0.47656,0.47656l1.41797,1.41406l3,-3l-1.41406,-1.41406l-0.45312,0.45313l-2.50781,-2.66406l0.875,-0.875l-1.41406,-1.41406l-0.83203,0.83203l-2.39844,-2.54687l0.00391,-0.00391l-2.54687,-2.69922l-6,-6.375zM22,2l-4,1l-4.84766,5.14844l2.69531,2.69922l5.15234,-4.84766z"></path></g></g></svg>